<mxfile host="app.diagrams.net" modified="2024-02-07T16:51:44.887Z" agent="Mozilla/5.0 (Windows NT 10.0; Win64; x64) AppleWebKit/537.36 (KHTML, like Gecko) Chrome/121.0.0.0 Safari/537.36" version="23.1.1" etag="ekzOQccS3oL5d7W2hRpm" type="github">
  <diagram name="Page-1" id="wFSHmHJI-tHECf4Le2p7">
    <mxGraphModel>
      <root>
        <mxCell id="0" />
        <mxCell id="1" parent="0" />
      </root>
    </mxGraphModel>
  </diagram>
</mxfile>
